<svg xmlns="http://www.w3.org/2000/svg" viewBox="0 0 155 180"><path fill="#dcdcde" d="M0 0h155v180H0z"/><path fill="#fff" d="M10 9.774h135v163H10z"/><rect width="26" height="20" x="64.5" y="19.774" fill="#fff" rx="2.5"/><rect width="26" height="20" x="64.5" y="19.774" fill="#dcdcde" rx="2.5"/><ellipse cx="70.188" cy="25.594" fill="#c3c4C7" rx="2.818" ry="2.9"/><path fill="#8c8f94" d="M87.24 36.441h-19.5v-2.508l3.63-3.737a.608.608 0 0 1 .432-.185.594.594 0 0 1 .432.185l2.818 2.9 6.881-7.08a.608.608 0 0 1 .432-.185.594.594 0 0 1 .432.185l4.443 4.573v5.852Z"/><path fill="#dcdcde" fill-rule="evenodd" d="M130 50.774H25v-1h105v1Z" clip-rule="evenodd"/><rect width="50" height="6" x="25" y="65.774" fill="#8c8f94" rx="3"/><rect width="75" height="6" x="25" y="76.774" fill="#c3c4C7" rx="3"/><rect width="50" height="6" x="25" y="97.774" fill="#8c8f94" rx="3"/><rect width="75" height="6" x="25" y="108.774" fill="#c3c4C7" rx="3"/><rect width="50" height="6" x="25" y="129.774" fill="#8c8f94" rx="3"/><rect width="105" height="6" x="25" y="140.774" fill="#c3c4C7" rx="3"/><rect width="90" height="6" x="25" y="151.774" fill="#c3c4C7" rx="3"/></svg>