<svg xmlns="http://www.w3.org/2000/svg" viewBox="0 0 155 180"><path fill="#dcdcde" d="M0 0h155v180H0z"/><path fill="#fff" d="M10 40.592a4 4 0 0 1 4-4h127a4 4 0 0 1 4 4v125a4 4 0 0 1-4 4H14a4 4 0 0 1-4-4v-125Z"/><rect width="50" height="6" x="25" y="51.592" fill="#8c8f94" rx="3"/><rect width="75" height="6" x="25" y="62.592" fill="#c3c4C7" rx="3"/><rect width="50" height="6" x="25" y="83.592" fill="#8c8f94" rx="3"/><rect width="75" height="6" x="25" y="94.592" fill="#c3c4C7" rx="3"/><rect width="50" height="6" x="25" y="115.592" fill="#8c8f94" rx="3"/><rect width="105" height="6" x="25" y="126.592" fill="#c3c4C7" rx="3"/><rect width="90" height="6" x="25" y="137.592" fill="#c3c4C7" rx="3"/><rect width="75" height="6" x="25" y="148.592" fill="#c3c4C7" rx="3"/><rect width="26" height="20" x="65" y="9" fill="#fff" rx="2.5"/><ellipse cx="70.688" cy="14.82" fill="#c3c4C7" rx="2.818" ry="2.9"/><path fill="#8c8f94" d="M87.74 25.667h-19.5v-2.509l3.63-3.737a.609.609 0 0 1 .432-.184.594.594 0 0 1 .432.184l2.818 2.902 6.881-7.082a.609.609 0 0 1 .432-.184.594.594 0 0 1 .432.184l4.443 4.573v5.853Z"/></svg>