<svg xmlns="http://www.w3.org/2000/svg" viewBox="0 0 155 180"><path fill="#dcdcde" d="M0 0h155v180H0z"/><path fill="#fff" d="M10 37h135v135H10z"/><rect width="50" height="6" x="20" y="47" fill="#8c8f94" rx="3"/><rect width="85" height="6" x="20" y="58" fill="#c3c4C7" rx="3"/><path fill="#dcdcde" fill-rule="evenodd" d="M135 75H20v-1h115v1Z" clip-rule="evenodd"/><rect width="50" height="6" x="20" y="85" fill="#8c8f94" rx="3"/><rect width="85" height="6" x="20" y="96" fill="#c3c4C7" rx="3"/><path fill="#dcdcde" fill-rule="evenodd" d="M135 113H20v-1h115v1Z" clip-rule="evenodd"/><rect width="50" height="6" x="20" y="123" fill="#8c8f94" rx="3"/><rect width="115" height="6" x="20" y="134" fill="#c3c4C7" rx="3"/><rect width="100" height="6" x="20" y="145" fill="#c3c4C7" rx="3"/><rect width="85" height="6" x="20" y="156" fill="#c3c4C7" rx="3"/><rect width="26" height="20" x="65" y="9" fill="#fff" rx="2.5"/><ellipse cx="70.688" cy="14.82" fill="#c3c4C7" rx="2.818" ry="2.9"/><path fill="#8c8f94" d="M87.74 25.667h-19.5v-2.508l3.63-3.737a.61.61 0 0 1 .432-.185.596.596 0 0 1 .432.185l2.818 2.9 6.881-7.08a.61.61 0 0 1 .432-.185.596.596 0 0 1 .432.184l4.443 4.573v5.853Z"/></svg>