<svg xmlns="http://www.w3.org/2000/svg" viewBox="0 0 155 180"><path fill="#dcdcde" d="M0 0h155v180H0z"/><path fill="#fff" d="M10 37h135v133H10z"/><rect width="30" height="6" x="20" y="47" fill="#8c8f94" rx="3"/><rect width="60" height="6" x="55" y="47" fill="#c3c4C7" rx="3"/><path fill="#dcdcde" fill-rule="evenodd" d="M135 61.125H20v-1h115v1Z" clip-rule="evenodd"/><rect width="30" height="6" x="20" y="68.25" fill="#8c8f94" rx="3"/><rect width="80" height="6" x="55" y="68.25" fill="#c3c4C7" rx="3"/><path fill="#dcdcde" fill-rule="evenodd" d="M135 82.375H20v-1h115v1Z" clip-rule="evenodd"/><rect width="30" height="6" x="20" y="89.5" fill="#8c8f94" rx="3"/><rect width="70" height="6" x="55" y="89.5" fill="#c3c4C7" rx="3"/><path fill="#dcdcde" fill-rule="evenodd" d="M135 103.625H20v-1h115v1Z" clip-rule="evenodd"/><rect width="30" height="6" x="20" y="110.75" fill="#8c8f94" rx="3"/><rect width="60" height="6" x="55" y="110.75" fill="#c3c4C7" rx="3"/><path fill="#dcdcde" fill-rule="evenodd" d="M135 124.875H20v-1h115v1Z" clip-rule="evenodd"/><rect width="30" height="6" x="20" y="132" fill="#8c8f94" rx="3"/><rect width="80" height="6" x="55" y="132" fill="#c3c4C7" rx="3"/><rect width="70" height="6" x="55" y="143" fill="#c3c4C7" rx="3"/><rect width="60" height="6" x="55" y="154" fill="#c3c4C7" rx="3"/><rect width="26" height="20" x="65" y="9" fill="#fff" rx="2.5"/><ellipse cx="70.688" cy="14.82" fill="#c3c4C7" rx="2.818" ry="2.9"/><path fill="#8c8f94" d="M87.74 25.667h-19.5v-2.509l3.63-3.737a.609.609 0 0 1 .432-.184.594.594 0 0 1 .432.184l2.818 2.902 6.881-7.082a.609.609 0 0 1 .432-.184.594.594 0 0 1 .432.184l4.443 4.573v5.853Z"/></svg>